<svg width="81" height="60" viewBox="0 0 81 60" fill="none" xmlns="http://www.w3.org/2000/svg">
<path d="M77.1853 5.41563C74.2861 1.83818 68.9335 0.378906 58.7111 0.378906H21.6039C11.1476 0.378906 5.70423 1.93231 2.81598 5.74105C0 9.45458 0 14.9262 0 22.499V36.9328C0 51.6038 3.34114 59.0526 21.6039 59.0526H58.7114C67.5761 59.0526 72.4884 57.765 75.6663 54.6079C78.9253 51.3703 80.3158 46.0843 80.3158 36.9328V22.499C80.3158 14.5128 80.0979 9.00895 77.1853 5.41563ZM51.563 31.7086L34.7127 40.8502C34.336 41.0546 33.9241 41.156 33.5127 41.156C33.0468 41.156 32.582 41.0258 32.1704 40.7671C31.3952 40.2795 30.9218 39.4073 30.9218 38.4666V20.2421C30.9218 19.3029 31.3939 18.4316 32.1675 17.9437C32.9414 17.4558 33.9039 17.4225 34.7068 17.8555L51.557 26.9382C52.4143 27.4002 52.9527 28.3189 52.954 29.3212C52.955 30.3244 52.419 31.2444 51.563 31.7086Z" fill="#FF0000"/>
</svg>
