<svg width="19" height="14" viewBox="0 0 19 14" fill="none" xmlns="http://www.w3.org/2000/svg">
<path d="M18.2672 1.75345C17.6174 0.981073 16.4178 0.666016 14.1268 0.666016H5.81052C3.46709 0.666016 2.24716 1.0014 1.59985 1.82371C0.96875 2.62546 0.96875 3.80678 0.96875 5.44176V8.55803C0.96875 11.7255 1.71755 13.3337 5.81052 13.3337H14.1269C16.1136 13.3337 17.2145 13.0557 17.9267 12.3741C18.6571 11.6751 18.9688 10.5338 18.9688 8.55803V5.44176C18.9688 3.71754 18.9199 2.52925 18.2672 1.75345ZM12.5248 7.43013L8.74841 9.4038C8.66398 9.44793 8.57166 9.46982 8.47945 9.46982C8.37505 9.46982 8.27089 9.44171 8.17862 9.38585C8.00489 9.28058 7.89881 9.09228 7.89881 8.88917V4.95449C7.89881 4.75173 8.0046 4.5636 8.17798 4.45827C8.35142 4.35294 8.56713 4.34574 8.74707 4.43922L12.5235 6.40018C12.7156 6.49993 12.8363 6.69828 12.8366 6.91469C12.8368 7.13127 12.7167 7.32991 12.5248 7.43013Z" fill="white"/>
</svg>
